# xmcd
#
# Track frame offsets:
#	150
#	10267
#	28207
#	46607
#	65060
#	83395
#	101762
#	120147
#	138557
#	156977
#	175332
#	192245
#	209880
#	228012
#	246415
#	264832
#	283172
#	301557
#
# Disc length: 4337 seconds
#
# Revision: 1
# Processed by: cddbd v1.5.1PL0 Copyright (c) Steve Scherf et al.
# Submitted via: CDex 1.50Beta5
#
DISCID=f110ef12
DTITLE=KENWOOD - VERTUAL REALITY SOUND
DYEAR=1900
DGENRE=
TTITLE0=Good Morning
TTITLE1=鳥たちの会話
TTITLE2=秋の夜長
TTITLE3=晩夏とひぐらし
TTITLE4=潮 騒
TTITLE5=木かげのある浜辺
TTITLE6=雪解け
TTITLE7=せせらぎと鳥のシンフォニー
TTITLE8=雨
TTITLE9=雷鳴
TTITLE10=黄昏の埠頭
TTITLE11=故郷
TTITLE12=風鈴と懐かしい下町
TTITLE13=CAR RACE
TTITLE14=ARENA
TTITLE15=JAZZ CLUB
TTITLE16=STADIUM
TTITLE17=バーチャルリアリティーサウンドの世界
EXTD=
EXTT0=
EXTT1=
EXTT2=
EXTT3=
EXTT4=
EXTT5=
EXTT6=
EXTT7=
EXTT8=
EXTT9=
EXTT10=
EXTT11=
EXTT12=
EXTT13=
EXTT14=
EXTT15=
EXTT16=
EXTT17=
PLAYORDER=
